# xmcd
#
# Track frame offsets:
#	150
#	11485
#	24575
#	34807
#	49939
#	59635
#	72519
#	85472
#	100018
#	112536
#	125016
#	136939
#
# Disc length: 1981 seconds
#
# Revision: 1
# Processed by: cddbd v1.5.1PL0 Copyright (c) Steve Scherf et al.
# Submitted via: audiograbber 1.83.01
#
DISCID=a107bb0c
DTITLE=Orion - The Early Years
DYEAR=1900
DGENRE=
TTITLE0=This Is Christmas
TTITLE1=Beggin' To You
TTITLE2=Just Out Of Reach
TTITLE3=How Did We Get Here
TTITLE4=Can't You See I'm Playing
TTITLE5=They Don't Speak Anymore
TTITLE6=Promised Land
TTITLE7=Nobody's Gonna Hold Me
TTITLE8=I'm Going To California
TTITLE9=You're Stealing My Wife
TTITLE10=Two Loving Shadows
TTITLE11=There You Go
EXTD=
EXTT0=
EXTT1=
EXTT2=
EXTT3=
EXTT4=
EXTT5=
EXTT6=
EXTT7=
EXTT8=
EXTT9=
EXTT10=
EXTT11=
PLAYORDER=
